<mxfile host="65bd71144e" modified="2021-01-04T07:46:31.172Z" agent="5.0 (Macintosh; Intel Mac OS X 11_0_0) AppleWebKit/537.36 (KHTML, like Gecko) Code/1.52.1 Chrome/83.0.4103.122 Electron/9.3.5 Safari/537.36" etag="3DWHvM6IUXE7BJ9SAxYe" version="13.10.0" type="embed">
    <diagram id="QNNgESZjir1vx-nOhgNs" name="Page-1">
        <mxGraphModel dx="1342" dy="542" grid="1" gridSize="10" guides="1" tooltips="1" connect="1" arrows="1" fold="1" page="1" pageScale="1" pageWidth="827" pageHeight="1169" background="#F4F1DE" math="0" shadow="0">
            <root>
                <mxCell id="0"/>
                <mxCell id="1" parent="0"/>
                <mxCell id="142" style="edgeStyle=orthogonalEdgeStyle;rounded=0;orthogonalLoop=1;jettySize=auto;html=1;exitX=0.25;exitY=0;exitDx=0;exitDy=0;entryX=1;entryY=0.5;entryDx=0;entryDy=0;strokeColor=#E07A5F;fontColor=#393C56;startArrow=ERzeroToOne;startFill=1;endArrow=ERmany;endFill=0;labelBackgroundColor=#F4F1DE;" parent="1" source="25" target="143" edge="1">
                    <mxGeometry relative="1" as="geometry"/>
                </mxCell>
                <mxCell id="329" style="edgeStyle=orthogonalEdgeStyle;curved=0;rounded=1;sketch=0;orthogonalLoop=1;jettySize=auto;html=1;exitX=0.75;exitY=1;exitDx=0;exitDy=0;entryX=0.75;entryY=0;entryDx=0;entryDy=0;startArrow=ERzeroToOne;startFill=1;endArrow=ERmany;endFill=0;strokeColor=#E07A5F;fillColor=#F2CC8F;fontColor=#393C56;" parent="1" source="25" target="156" edge="1">
                    <mxGeometry relative="1" as="geometry"/>
                </mxCell>
                <mxCell id="330" style="edgeStyle=orthogonalEdgeStyle;curved=0;rounded=1;sketch=0;orthogonalLoop=1;jettySize=auto;html=1;exitX=0.25;exitY=1;exitDx=0;exitDy=0;entryX=1;entryY=0.5;entryDx=0;entryDy=0;startArrow=ERzeroToOne;startFill=1;endArrow=ERmany;endFill=0;strokeColor=#E07A5F;fillColor=#F2CC8F;fontColor=#393C56;" parent="1" source="25" target="171" edge="1">
                    <mxGeometry relative="1" as="geometry"/>
                </mxCell>
                <mxCell id="25" value="Users" style="shape=table;startSize=30;container=1;collapsible=1;childLayout=tableLayout;fixedRows=1;rowLines=0;fontStyle=1;align=center;resizeLast=1;rounded=0;sketch=0;strokeColor=#E07A5F;fillColor=#F2CC8F;fontColor=#393C56;" parent="1" vertex="1">
                    <mxGeometry x="700" y="710" width="420" height="250" as="geometry"/>
                </mxCell>
                <mxCell id="26" value="" style="shape=partialRectangle;collapsible=0;dropTarget=0;pointerEvents=0;fillColor=none;top=0;left=0;bottom=0;right=0;points=[[0,0.5],[1,0.5]];portConstraint=eastwest;strokeColor=#E07A5F;fontColor=#393C56;" parent="25" vertex="1">
                    <mxGeometry y="30" width="420" height="30" as="geometry"/>
                </mxCell>
                <mxCell id="27" value="PK" style="shape=partialRectangle;connectable=0;fillColor=none;top=0;left=0;bottom=0;right=0;fontStyle=1;overflow=hidden;strokeColor=#E07A5F;fontColor=#393C56;" parent="26" vertex="1">
                    <mxGeometry width="60" height="30" as="geometry"/>
                </mxCell>
                <mxCell id="111" value="ユーザID" style="shape=partialRectangle;connectable=0;fillColor=none;top=0;left=0;bottom=0;right=0;align=left;spacingLeft=6;fontStyle=5;overflow=hidden;strokeColor=#E07A5F;fontColor=#393C56;" parent="26" vertex="1">
                    <mxGeometry x="60" width="120" height="30" as="geometry"/>
                </mxCell>
                <mxCell id="28" value="id" style="shape=partialRectangle;connectable=0;fillColor=none;top=0;left=0;bottom=0;right=0;align=left;spacingLeft=6;fontStyle=5;overflow=hidden;strokeColor=#E07A5F;fontColor=#393C56;" parent="26" vertex="1">
                    <mxGeometry x="180" width="120" height="30" as="geometry"/>
                </mxCell>
                <mxCell id="56" value="INTEGER(11),AI" style="shape=partialRectangle;connectable=0;fillColor=none;top=0;left=0;bottom=0;right=0;align=left;spacingLeft=6;fontStyle=5;overflow=hidden;strokeColor=#E07A5F;fontColor=#393C56;" parent="26" vertex="1">
                    <mxGeometry x="300" width="120" height="30" as="geometry"/>
                </mxCell>
                <mxCell id="29" value="" style="shape=partialRectangle;collapsible=0;dropTarget=0;pointerEvents=0;fillColor=none;top=0;left=0;bottom=1;right=0;points=[[0,0.5],[1,0.5]];portConstraint=eastwest;strokeColor=#E07A5F;fontColor=#393C56;" parent="25" vertex="1">
                    <mxGeometry y="60" width="420" height="30" as="geometry"/>
                </mxCell>
                <mxCell id="30" value="" style="shape=partialRectangle;connectable=0;fillColor=none;top=0;left=0;bottom=0;right=0;fontStyle=1;overflow=hidden;strokeColor=#E07A5F;fontColor=#393C56;" parent="29" vertex="1">
                    <mxGeometry width="60" height="30" as="geometry"/>
                </mxCell>
                <mxCell id="112" style="shape=partialRectangle;connectable=0;fillColor=none;top=0;left=0;bottom=0;right=0;align=left;spacingLeft=6;fontStyle=5;overflow=hidden;strokeColor=#E07A5F;fontColor=#393C56;" parent="29" vertex="1">
                    <mxGeometry x="60" width="120" height="30" as="geometry"/>
                </mxCell>
                <mxCell id="31" value="Row 2" style="shape=partialRectangle;connectable=0;fillColor=none;top=0;left=0;bottom=0;right=0;align=left;spacingLeft=6;fontStyle=5;overflow=hidden;strokeColor=#E07A5F;fontColor=#393C56;" parent="29" vertex="1">
                    <mxGeometry x="180" width="120" height="30" as="geometry"/>
                </mxCell>
                <mxCell id="57" style="shape=partialRectangle;connectable=0;fillColor=none;top=0;left=0;bottom=0;right=0;align=left;spacingLeft=6;fontStyle=5;overflow=hidden;strokeColor=#E07A5F;fontColor=#393C56;" parent="29" vertex="1">
                    <mxGeometry x="300" width="120" height="30" as="geometry"/>
                </mxCell>
                <mxCell id="32" value="" style="shape=partialRectangle;collapsible=0;dropTarget=0;pointerEvents=0;fillColor=none;top=0;left=0;bottom=0;right=0;points=[[0,0.5],[1,0.5]];portConstraint=eastwest;strokeColor=#E07A5F;fontColor=#393C56;" parent="25" vertex="1">
                    <mxGeometry y="90" width="420" height="30" as="geometry"/>
                </mxCell>
                <mxCell id="33" value="" style="shape=partialRectangle;connectable=0;fillColor=none;top=0;left=0;bottom=0;right=0;editable=1;overflow=hidden;strokeColor=#E07A5F;fontColor=#393C56;" parent="32" vertex="1">
                    <mxGeometry width="60" height="30" as="geometry"/>
                </mxCell>
                <mxCell id="113" value="メールアドレス" style="shape=partialRectangle;connectable=0;fillColor=none;top=0;left=0;bottom=0;right=0;align=left;spacingLeft=6;overflow=hidden;strokeColor=#E07A5F;fontColor=#393C56;" parent="32" vertex="1">
                    <mxGeometry x="60" width="120" height="30" as="geometry"/>
                </mxCell>
                <mxCell id="34" value="mail" style="shape=partialRectangle;connectable=0;fillColor=none;top=0;left=0;bottom=0;right=0;align=left;spacingLeft=6;overflow=hidden;strokeColor=#E07A5F;fontColor=#393C56;" parent="32" vertex="1">
                    <mxGeometry x="180" width="120" height="30" as="geometry"/>
                </mxCell>
                <mxCell id="58" value="VARCHAR(100)" style="shape=partialRectangle;connectable=0;fillColor=none;top=0;left=0;bottom=0;right=0;align=left;spacingLeft=6;overflow=hidden;strokeColor=#E07A5F;fontColor=#393C56;" parent="32" vertex="1">
                    <mxGeometry x="300" width="120" height="30" as="geometry"/>
                </mxCell>
                <mxCell id="35" value="" style="shape=partialRectangle;collapsible=0;dropTarget=0;pointerEvents=0;fillColor=none;top=0;left=0;bottom=0;right=0;points=[[0,0.5],[1,0.5]];portConstraint=eastwest;strokeColor=#E07A5F;fontColor=#393C56;" parent="25" vertex="1">
                    <mxGeometry y="120" width="420" height="30" as="geometry"/>
                </mxCell>
                <mxCell id="36" value="" style="shape=partialRectangle;connectable=0;fillColor=none;top=0;left=0;bottom=0;right=0;editable=1;overflow=hidden;strokeColor=#E07A5F;fontColor=#393C56;" parent="35" vertex="1">
                    <mxGeometry width="60" height="30" as="geometry"/>
                </mxCell>
                <mxCell id="114" value="パスワード" style="shape=partialRectangle;connectable=0;fillColor=none;top=0;left=0;bottom=0;right=0;align=left;spacingLeft=6;overflow=hidden;strokeColor=#E07A5F;fontColor=#393C56;" parent="35" vertex="1">
                    <mxGeometry x="60" width="120" height="30" as="geometry"/>
                </mxCell>
                <mxCell id="37" value="password" style="shape=partialRectangle;connectable=0;fillColor=none;top=0;left=0;bottom=0;right=0;align=left;spacingLeft=6;overflow=hidden;strokeColor=#E07A5F;fontColor=#393C56;" parent="35" vertex="1">
                    <mxGeometry x="180" width="120" height="30" as="geometry"/>
                </mxCell>
                <mxCell id="59" value="VARCHAR(100)" style="shape=partialRectangle;connectable=0;fillColor=none;top=0;left=0;bottom=0;right=0;align=left;spacingLeft=6;overflow=hidden;strokeColor=#E07A5F;fontColor=#393C56;" parent="35" vertex="1">
                    <mxGeometry x="300" width="120" height="30" as="geometry"/>
                </mxCell>
                <mxCell id="60" style="shape=partialRectangle;collapsible=0;dropTarget=0;pointerEvents=0;fillColor=none;top=0;left=0;bottom=0;right=0;points=[[0,0.5],[1,0.5]];portConstraint=eastwest;strokeColor=#E07A5F;fontColor=#393C56;" parent="25" vertex="1">
                    <mxGeometry y="150" width="420" height="30" as="geometry"/>
                </mxCell>
                <mxCell id="61" style="shape=partialRectangle;connectable=0;fillColor=none;top=0;left=0;bottom=0;right=0;editable=1;overflow=hidden;strokeColor=#E07A5F;fontColor=#393C56;" parent="60" vertex="1">
                    <mxGeometry width="60" height="30" as="geometry"/>
                </mxCell>
                <mxCell id="115" value="表示名" style="shape=partialRectangle;connectable=0;fillColor=none;top=0;left=0;bottom=0;right=0;align=left;spacingLeft=6;overflow=hidden;strokeColor=#E07A5F;fontColor=#393C56;" parent="60" vertex="1">
                    <mxGeometry x="60" width="120" height="30" as="geometry"/>
                </mxCell>
                <mxCell id="62" value="display_name" style="shape=partialRectangle;connectable=0;fillColor=none;top=0;left=0;bottom=0;right=0;align=left;spacingLeft=6;overflow=hidden;strokeColor=#E07A5F;fontColor=#393C56;" parent="60" vertex="1">
                    <mxGeometry x="180" width="120" height="30" as="geometry"/>
                </mxCell>
                <mxCell id="63" value="VARCHAR(20)" style="shape=partialRectangle;connectable=0;fillColor=none;top=0;left=0;bottom=0;right=0;align=left;spacingLeft=6;overflow=hidden;strokeColor=#E07A5F;fontColor=#393C56;" parent="60" vertex="1">
                    <mxGeometry x="300" width="120" height="30" as="geometry"/>
                </mxCell>
                <mxCell id="68" style="shape=partialRectangle;collapsible=0;dropTarget=0;pointerEvents=0;fillColor=none;top=0;left=0;bottom=0;right=0;points=[[0,0.5],[1,0.5]];portConstraint=eastwest;strokeColor=#E07A5F;fontColor=#393C56;" parent="25" vertex="1">
                    <mxGeometry y="180" width="420" height="30" as="geometry"/>
                </mxCell>
                <mxCell id="69" style="shape=partialRectangle;connectable=0;fillColor=none;top=0;left=0;bottom=0;right=0;editable=1;overflow=hidden;strokeColor=#E07A5F;fontColor=#393C56;" parent="68" vertex="1">
                    <mxGeometry width="60" height="30" as="geometry"/>
                </mxCell>
                <mxCell id="117" value="プロフィール画像" style="shape=partialRectangle;connectable=0;fillColor=none;top=0;left=0;bottom=0;right=0;align=left;spacingLeft=6;overflow=hidden;strokeColor=#E07A5F;fontColor=#393C56;" parent="68" vertex="1">
                    <mxGeometry x="60" width="120" height="30" as="geometry"/>
                </mxCell>
                <mxCell id="70" value="image_path" style="shape=partialRectangle;connectable=0;fillColor=none;top=0;left=0;bottom=0;right=0;align=left;spacingLeft=6;overflow=hidden;strokeColor=#E07A5F;fontColor=#393C56;" parent="68" vertex="1">
                    <mxGeometry x="180" width="120" height="30" as="geometry"/>
                </mxCell>
                <mxCell id="71" value="VARCHAR(100)" style="shape=partialRectangle;connectable=0;fillColor=none;top=0;left=0;bottom=0;right=0;align=left;spacingLeft=6;overflow=hidden;strokeColor=#E07A5F;fontColor=#393C56;" parent="68" vertex="1">
                    <mxGeometry x="300" width="120" height="30" as="geometry"/>
                </mxCell>
                <mxCell id="131" style="shape=partialRectangle;collapsible=0;dropTarget=0;pointerEvents=0;fillColor=none;top=0;left=0;bottom=0;right=0;points=[[0,0.5],[1,0.5]];portConstraint=eastwest;strokeColor=#E07A5F;fontColor=#393C56;" parent="25" vertex="1">
                    <mxGeometry y="210" width="420" height="30" as="geometry"/>
                </mxCell>
                <mxCell id="132" style="shape=partialRectangle;connectable=0;fillColor=none;top=0;left=0;bottom=0;right=0;editable=1;overflow=hidden;strokeColor=#E07A5F;fontColor=#393C56;" parent="131" vertex="1">
                    <mxGeometry width="60" height="30" as="geometry"/>
                </mxCell>
                <mxCell id="133" value="削除フラグ" style="shape=partialRectangle;connectable=0;fillColor=none;top=0;left=0;bottom=0;right=0;align=left;spacingLeft=6;overflow=hidden;strokeColor=#E07A5F;fontColor=#393C56;" parent="131" vertex="1">
                    <mxGeometry x="60" width="120" height="30" as="geometry"/>
                </mxCell>
                <mxCell id="134" value="is_deleted" style="shape=partialRectangle;connectable=0;fillColor=none;top=0;left=0;bottom=0;right=0;align=left;spacingLeft=6;overflow=hidden;strokeColor=#E07A5F;fontColor=#393C56;" parent="131" vertex="1">
                    <mxGeometry x="180" width="120" height="30" as="geometry"/>
                </mxCell>
                <mxCell id="135" value="tinyint&#10;0: 削除, 1:削除済み" style="shape=partialRectangle;connectable=0;fillColor=none;top=0;left=0;bottom=0;right=0;align=left;spacingLeft=6;overflow=hidden;strokeColor=#E07A5F;fontColor=#393C56;" parent="131" vertex="1">
                    <mxGeometry x="300" width="120" height="30" as="geometry"/>
                </mxCell>
                <mxCell id="148" style="edgeStyle=orthogonalEdgeStyle;curved=0;rounded=1;sketch=0;orthogonalLoop=1;jettySize=auto;html=1;exitX=0.5;exitY=1;exitDx=0;exitDy=0;entryX=1;entryY=0.5;entryDx=0;entryDy=0;startArrow=ERzeroToOne;startFill=1;endArrow=ERmany;endFill=0;strokeColor=#E07A5F;fillColor=#F2CC8F;fontColor=#393C56;labelBackgroundColor=#F4F1DE;" parent="1" source="77" edge="1">
                    <mxGeometry relative="1" as="geometry"/>
                </mxCell>
                <mxCell id="77" value="teams&#10;複数人でプロジェクトを共有" style="shape=table;startSize=40;container=1;collapsible=1;childLayout=tableLayout;fixedRows=1;rowLines=0;fontStyle=1;align=center;resizeLast=1;rounded=0;sketch=0;strokeColor=#10739e;fillColor=#b1ddf0;" parent="1" vertex="1">
                    <mxGeometry x="520" y="290" width="530" height="190" as="geometry"/>
                </mxCell>
                <mxCell id="78" value="" style="shape=partialRectangle;collapsible=0;dropTarget=0;pointerEvents=0;fillColor=none;top=0;left=0;bottom=0;right=0;points=[[0,0.5],[1,0.5]];portConstraint=eastwest;strokeColor=#E07A5F;fontColor=#393C56;" parent="77" vertex="1">
                    <mxGeometry y="40" width="530" height="30" as="geometry"/>
                </mxCell>
                <mxCell id="79" value="PK,FK1" style="shape=partialRectangle;connectable=0;fillColor=none;top=0;left=0;bottom=0;right=0;fontStyle=1;overflow=hidden;strokeColor=#E07A5F;fontColor=#393C56;" parent="78" vertex="1">
                    <mxGeometry width="60" height="30" as="geometry"/>
                </mxCell>
                <mxCell id="122" value="チームID" style="shape=partialRectangle;connectable=0;fillColor=none;top=0;left=0;bottom=0;right=0;align=left;spacingLeft=6;fontStyle=5;overflow=hidden;strokeColor=#E07A5F;fontColor=#393C56;" parent="78" vertex="1">
                    <mxGeometry x="60" width="120" height="30" as="geometry"/>
                </mxCell>
                <mxCell id="80" value="ID" style="shape=partialRectangle;connectable=0;fillColor=none;top=0;left=0;bottom=0;right=0;align=left;spacingLeft=6;fontStyle=5;overflow=hidden;strokeColor=#E07A5F;fontColor=#393C56;" parent="78" vertex="1">
                    <mxGeometry x="180" width="120" height="30" as="geometry"/>
                </mxCell>
                <mxCell id="90" value="INTEGER(11), AI" style="shape=partialRectangle;connectable=0;fillColor=none;top=0;left=0;bottom=0;right=0;align=left;spacingLeft=6;fontStyle=5;overflow=hidden;strokeColor=#E07A5F;fontColor=#393C56;" parent="78" vertex="1">
                    <mxGeometry x="300" width="230" height="30" as="geometry"/>
                </mxCell>
                <mxCell id="81" value="" style="shape=partialRectangle;collapsible=0;dropTarget=0;pointerEvents=0;fillColor=none;top=0;left=0;bottom=1;right=0;points=[[0,0.5],[1,0.5]];portConstraint=eastwest;strokeColor=#E07A5F;fontColor=#393C56;" parent="77" vertex="1">
                    <mxGeometry y="70" width="530" height="30" as="geometry"/>
                </mxCell>
                <mxCell id="82" value="" style="shape=partialRectangle;connectable=0;fillColor=none;top=0;left=0;bottom=0;right=0;fontStyle=1;overflow=hidden;strokeColor=#E07A5F;fontColor=#393C56;" parent="81" vertex="1">
                    <mxGeometry width="60" height="30" as="geometry"/>
                </mxCell>
                <mxCell id="123" value="" style="shape=partialRectangle;connectable=0;fillColor=none;top=0;left=0;bottom=0;right=0;align=left;spacingLeft=6;fontStyle=5;overflow=hidden;strokeColor=#E07A5F;fontColor=#393C56;" parent="81" vertex="1">
                    <mxGeometry x="60" width="120" height="30" as="geometry"/>
                </mxCell>
                <mxCell id="83" value="row2" style="shape=partialRectangle;connectable=0;fillColor=none;top=0;left=0;bottom=0;right=0;align=left;spacingLeft=6;fontStyle=5;overflow=hidden;strokeColor=#E07A5F;fontColor=#393C56;" parent="81" vertex="1">
                    <mxGeometry x="180" width="120" height="30" as="geometry"/>
                </mxCell>
                <mxCell id="91" style="shape=partialRectangle;connectable=0;fillColor=none;top=0;left=0;bottom=0;right=0;align=left;spacingLeft=6;fontStyle=5;overflow=hidden;strokeColor=#E07A5F;fontColor=#393C56;" parent="81" vertex="1">
                    <mxGeometry x="300" width="230" height="30" as="geometry"/>
                </mxCell>
                <mxCell id="84" value="" style="shape=partialRectangle;collapsible=0;dropTarget=0;pointerEvents=0;fillColor=none;top=0;left=0;bottom=0;right=0;points=[[0,0.5],[1,0.5]];portConstraint=eastwest;strokeColor=#E07A5F;fontColor=#393C56;" parent="77" vertex="1">
                    <mxGeometry y="100" width="530" height="30" as="geometry"/>
                </mxCell>
                <mxCell id="85" value="" style="shape=partialRectangle;connectable=0;fillColor=none;top=0;left=0;bottom=0;right=0;editable=1;overflow=hidden;strokeColor=#E07A5F;fontColor=#393C56;" parent="84" vertex="1">
                    <mxGeometry width="60" height="30" as="geometry"/>
                </mxCell>
                <mxCell id="124" value="チーム名" style="shape=partialRectangle;connectable=0;fillColor=none;top=0;left=0;bottom=0;right=0;align=left;spacingLeft=6;overflow=hidden;strokeColor=#E07A5F;fontColor=#393C56;" parent="84" vertex="1">
                    <mxGeometry x="60" width="120" height="30" as="geometry"/>
                </mxCell>
                <mxCell id="86" value="state" style="shape=partialRectangle;connectable=0;fillColor=none;top=0;left=0;bottom=0;right=0;align=left;spacingLeft=6;overflow=hidden;strokeColor=#E07A5F;fontColor=#393C56;" parent="84" vertex="1">
                    <mxGeometry x="180" width="120" height="30" as="geometry"/>
                </mxCell>
                <mxCell id="92" value="INTEGER(11)&#10;1:KEEP, 2:PROBLEM, 3:TRY, 4:DONE" style="shape=partialRectangle;connectable=0;fillColor=none;top=0;left=0;bottom=0;right=0;align=left;spacingLeft=6;overflow=hidden;strokeColor=#E07A5F;fontColor=#393C56;" parent="84" vertex="1">
                    <mxGeometry x="300" width="230" height="30" as="geometry"/>
                </mxCell>
                <mxCell id="87" value="" style="shape=partialRectangle;collapsible=0;dropTarget=0;pointerEvents=0;fillColor=none;top=0;left=0;bottom=0;right=0;points=[[0,0.5],[1,0.5]];portConstraint=eastwest;strokeColor=#E07A5F;fontColor=#393C56;" parent="77" vertex="1">
                    <mxGeometry y="130" width="530" height="30" as="geometry"/>
                </mxCell>
                <mxCell id="88" value="" style="shape=partialRectangle;connectable=0;fillColor=none;top=0;left=0;bottom=0;right=0;editable=1;overflow=hidden;strokeColor=#E07A5F;fontColor=#393C56;" parent="87" vertex="1">
                    <mxGeometry width="60" height="30" as="geometry"/>
                </mxCell>
                <mxCell id="125" value="内容" style="shape=partialRectangle;connectable=0;fillColor=none;top=0;left=0;bottom=0;right=0;align=left;spacingLeft=6;overflow=hidden;strokeColor=#E07A5F;fontColor=#393C56;" parent="87" vertex="1">
                    <mxGeometry x="60" width="120" height="30" as="geometry"/>
                </mxCell>
                <mxCell id="89" value="content" style="shape=partialRectangle;connectable=0;fillColor=none;top=0;left=0;bottom=0;right=0;align=left;spacingLeft=6;overflow=hidden;strokeColor=#E07A5F;fontColor=#393C56;" parent="87" vertex="1">
                    <mxGeometry x="180" width="120" height="30" as="geometry"/>
                </mxCell>
                <mxCell id="93" value="VARCHAR(1000)" style="shape=partialRectangle;connectable=0;fillColor=none;top=0;left=0;bottom=0;right=0;align=left;spacingLeft=6;overflow=hidden;strokeColor=#E07A5F;fontColor=#393C56;" parent="87" vertex="1">
                    <mxGeometry x="300" width="230" height="30" as="geometry"/>
                </mxCell>
                <mxCell id="126" style="shape=partialRectangle;collapsible=0;dropTarget=0;pointerEvents=0;fillColor=none;top=0;left=0;bottom=0;right=0;points=[[0,0.5],[1,0.5]];portConstraint=eastwest;strokeColor=#E07A5F;fontColor=#393C56;" parent="77" vertex="1">
                    <mxGeometry y="160" width="530" height="30" as="geometry"/>
                </mxCell>
                <mxCell id="127" style="shape=partialRectangle;connectable=0;fillColor=none;top=0;left=0;bottom=0;right=0;editable=1;overflow=hidden;strokeColor=#E07A5F;fontColor=#393C56;" parent="126" vertex="1">
                    <mxGeometry width="60" height="30" as="geometry"/>
                </mxCell>
                <mxCell id="128" value="削除フラグ" style="shape=partialRectangle;connectable=0;fillColor=none;top=0;left=0;bottom=0;right=0;align=left;spacingLeft=6;overflow=hidden;strokeColor=#E07A5F;fontColor=#393C56;" parent="126" vertex="1">
                    <mxGeometry x="60" width="120" height="30" as="geometry"/>
                </mxCell>
                <mxCell id="129" value="is_deleted" style="shape=partialRectangle;connectable=0;fillColor=none;top=0;left=0;bottom=0;right=0;align=left;spacingLeft=6;overflow=hidden;strokeColor=#E07A5F;fontColor=#393C56;" parent="126" vertex="1">
                    <mxGeometry x="180" width="120" height="30" as="geometry"/>
                </mxCell>
                <mxCell id="130" value="tinyint&#10;0: 未削除, 1:削除済み" style="shape=partialRectangle;connectable=0;fillColor=none;top=0;left=0;bottom=0;right=0;align=left;spacingLeft=6;overflow=hidden;strokeColor=#E07A5F;fontColor=#393C56;" parent="126" vertex="1">
                    <mxGeometry x="300" width="230" height="30" as="geometry"/>
                </mxCell>
                <mxCell id="225" style="edgeStyle=orthogonalEdgeStyle;rounded=0;orthogonalLoop=1;jettySize=auto;html=1;exitX=0.5;exitY=1;exitDx=0;exitDy=0;entryX=0.5;entryY=0;entryDx=0;entryDy=0;labelBackgroundColor=#F4F1DE;strokeColor=#E07A5F;fontColor=#393C56;" parent="1" source="94" target="203" edge="1">
                    <mxGeometry relative="1" as="geometry"/>
                </mxCell>
                <mxCell id="94" value="Permissions&#10;プロジェクトへのアクセス権限を管理" style="shape=table;startSize=50;container=1;collapsible=1;childLayout=tableLayout;fixedRows=1;rowLines=0;fontStyle=1;align=center;resizeLast=1;rounded=0;sketch=0;strokeColor=#E07A5F;fillColor=#F2CC8F;fontColor=#393C56;" parent="1" vertex="1">
                    <mxGeometry x="30" y="490" width="420" height="110" as="geometry"/>
                </mxCell>
                <mxCell id="143" style="shape=partialRectangle;collapsible=0;dropTarget=0;pointerEvents=0;fillColor=none;top=0;left=0;bottom=0;right=0;points=[[0,0.5],[1,0.5]];portConstraint=eastwest;strokeColor=#E07A5F;fontColor=#393C56;" parent="94" vertex="1">
                    <mxGeometry y="50" width="420" height="30" as="geometry"/>
                </mxCell>
                <mxCell id="144" value="PK, FK" style="shape=partialRectangle;connectable=0;fillColor=none;top=0;left=0;bottom=0;right=0;fontStyle=1;overflow=hidden;strokeColor=#E07A5F;fontColor=#393C56;" parent="143" vertex="1">
                    <mxGeometry width="60" height="30" as="geometry"/>
                </mxCell>
                <mxCell id="145" value="ユーザーID" style="shape=partialRectangle;connectable=0;fillColor=none;top=0;left=0;bottom=0;right=0;align=left;spacingLeft=6;fontStyle=5;overflow=hidden;strokeColor=#E07A5F;fontColor=#393C56;" parent="143" vertex="1">
                    <mxGeometry x="60" width="120" height="30" as="geometry"/>
                </mxCell>
                <mxCell id="146" value="id" style="shape=partialRectangle;connectable=0;fillColor=none;top=0;left=0;bottom=0;right=0;align=left;spacingLeft=6;fontStyle=5;overflow=hidden;strokeColor=#E07A5F;fontColor=#393C56;" parent="143" vertex="1">
                    <mxGeometry x="180" width="120" height="30" as="geometry"/>
                </mxCell>
                <mxCell id="147" value="INTEGER(11)" style="shape=partialRectangle;connectable=0;fillColor=none;top=0;left=0;bottom=0;right=0;align=left;spacingLeft=6;fontStyle=5;overflow=hidden;strokeColor=#E07A5F;fontColor=#393C56;" parent="143" vertex="1">
                    <mxGeometry x="300" width="120" height="30" as="geometry"/>
                </mxCell>
                <mxCell id="95" value="" style="shape=partialRectangle;collapsible=0;dropTarget=0;pointerEvents=0;fillColor=none;top=0;left=0;bottom=0;right=0;points=[[0,0.5],[1,0.5]];portConstraint=eastwest;strokeColor=#E07A5F;fontColor=#393C56;" parent="94" vertex="1">
                    <mxGeometry y="80" width="420" height="30" as="geometry"/>
                </mxCell>
                <mxCell id="96" value="PK,FK" style="shape=partialRectangle;connectable=0;fillColor=none;top=0;left=0;bottom=0;right=0;fontStyle=1;overflow=hidden;strokeColor=#E07A5F;fontColor=#393C56;" parent="95" vertex="1">
                    <mxGeometry width="60" height="30" as="geometry"/>
                </mxCell>
                <mxCell id="118" value="プロジェクトID" style="shape=partialRectangle;connectable=0;fillColor=none;top=0;left=0;bottom=0;right=0;align=left;spacingLeft=6;fontStyle=5;overflow=hidden;strokeColor=#E07A5F;fontColor=#393C56;" parent="95" vertex="1">
                    <mxGeometry x="60" width="120" height="30" as="geometry"/>
                </mxCell>
                <mxCell id="97" value="task_id" style="shape=partialRectangle;connectable=0;fillColor=none;top=0;left=0;bottom=0;right=0;align=left;spacingLeft=6;fontStyle=5;overflow=hidden;strokeColor=#E07A5F;fontColor=#393C56;" parent="95" vertex="1">
                    <mxGeometry x="180" width="120" height="30" as="geometry"/>
                </mxCell>
                <mxCell id="107" value="INTEGER(11)" style="shape=partialRectangle;connectable=0;fillColor=none;top=0;left=0;bottom=0;right=0;align=left;spacingLeft=6;fontStyle=5;overflow=hidden;strokeColor=#E07A5F;fontColor=#393C56;" parent="95" vertex="1">
                    <mxGeometry x="300" width="120" height="30" as="geometry"/>
                </mxCell>
                <mxCell id="141" style="edgeStyle=orthogonalEdgeStyle;rounded=0;orthogonalLoop=1;jettySize=auto;html=1;exitX=1;exitY=0.5;exitDx=0;exitDy=0;entryX=0.5;entryY=0;entryDx=0;entryDy=0;strokeColor=#E07A5F;endArrow=ERmany;endFill=0;startArrow=ERzeroToOne;startFill=1;fontColor=#393C56;labelBackgroundColor=#F4F1DE;" parent="1" source="35" target="77" edge="1">
                    <mxGeometry relative="1" as="geometry">
                        <mxPoint x="610" y="175.66666666666663" as="targetPoint"/>
                        <Array as="points">
                            <mxPoint x="1170" y="845"/>
                            <mxPoint x="1170" y="250"/>
                            <mxPoint x="785" y="250"/>
                        </Array>
                    </mxGeometry>
                </mxCell>
                <mxCell id="156" value="tasks&#10;KEEP, TRY, DONEを管理" style="shape=table;startSize=40;container=1;collapsible=1;childLayout=tableLayout;fixedRows=1;rowLines=0;fontStyle=1;align=center;resizeLast=1;fillColor=#F2CC8F;strokeColor=#E07A5F;fontColor=#393C56;" parent="1" vertex="1">
                    <mxGeometry x="550" y="1360" width="420" height="380" as="geometry"/>
                </mxCell>
                <mxCell id="157" value="" style="shape=partialRectangle;collapsible=0;dropTarget=0;pointerEvents=0;fillColor=none;top=0;left=0;bottom=0;right=0;points=[[0,0.5],[1,0.5]];portConstraint=eastwest;strokeColor=#E07A5F;fontColor=#393C56;" parent="156" vertex="1">
                    <mxGeometry y="40" width="420" height="30" as="geometry"/>
                </mxCell>
                <mxCell id="158" value="PK,FK1" style="shape=partialRectangle;connectable=0;fillColor=none;top=0;left=0;bottom=0;right=0;fontStyle=1;overflow=hidden;strokeColor=#E07A5F;fontColor=#393C56;" parent="157" vertex="1">
                    <mxGeometry width="60" height="30" as="geometry"/>
                </mxCell>
                <mxCell id="159" value="ID" style="shape=partialRectangle;connectable=0;fillColor=none;top=0;left=0;bottom=0;right=0;align=left;spacingLeft=6;fontStyle=5;overflow=hidden;strokeColor=#E07A5F;fontColor=#393C56;" parent="157" vertex="1">
                    <mxGeometry x="60" width="120" height="30" as="geometry"/>
                </mxCell>
                <mxCell id="183" value="id" style="shape=partialRectangle;connectable=0;fillColor=none;top=0;left=0;bottom=0;right=0;align=left;spacingLeft=6;fontStyle=5;overflow=hidden;strokeColor=#E07A5F;fontColor=#393C56;" parent="157" vertex="1">
                    <mxGeometry x="180" width="120" height="30" as="geometry"/>
                </mxCell>
                <mxCell id="282" style="shape=partialRectangle;connectable=0;fillColor=none;top=0;left=0;bottom=0;right=0;align=left;spacingLeft=6;fontStyle=5;overflow=hidden;strokeColor=#E07A5F;fontColor=#393C56;" parent="157" vertex="1">
                    <mxGeometry x="300" width="120" height="30" as="geometry"/>
                </mxCell>
                <mxCell id="160" value="" style="shape=partialRectangle;collapsible=0;dropTarget=0;pointerEvents=0;fillColor=none;top=0;left=0;bottom=1;right=0;points=[[0,0.5],[1,0.5]];portConstraint=eastwest;strokeColor=#E07A5F;fontColor=#393C56;" parent="156" vertex="1">
                    <mxGeometry y="70" width="420" height="30" as="geometry"/>
                </mxCell>
                <mxCell id="161" value="PK,FK2" style="shape=partialRectangle;connectable=0;fillColor=none;top=0;left=0;bottom=0;right=0;fontStyle=1;overflow=hidden;strokeColor=#E07A5F;fontColor=#393C56;" parent="160" vertex="1">
                    <mxGeometry width="60" height="30" as="geometry"/>
                </mxCell>
                <mxCell id="162" value="Row 2" style="shape=partialRectangle;connectable=0;fillColor=none;top=0;left=0;bottom=0;right=0;align=left;spacingLeft=6;fontStyle=5;overflow=hidden;strokeColor=#E07A5F;fontColor=#393C56;" parent="160" vertex="1">
                    <mxGeometry x="60" width="120" height="30" as="geometry"/>
                </mxCell>
                <mxCell id="184" style="shape=partialRectangle;connectable=0;fillColor=none;top=0;left=0;bottom=0;right=0;align=left;spacingLeft=6;fontStyle=5;overflow=hidden;strokeColor=#E07A5F;fontColor=#393C56;" parent="160" vertex="1">
                    <mxGeometry x="180" width="120" height="30" as="geometry"/>
                </mxCell>
                <mxCell id="283" style="shape=partialRectangle;connectable=0;fillColor=none;top=0;left=0;bottom=0;right=0;align=left;spacingLeft=6;fontStyle=5;overflow=hidden;strokeColor=#E07A5F;fontColor=#393C56;" parent="160" vertex="1">
                    <mxGeometry x="300" width="120" height="30" as="geometry"/>
                </mxCell>
                <mxCell id="195" style="shape=partialRectangle;collapsible=0;dropTarget=0;pointerEvents=0;fillColor=none;top=0;left=0;bottom=0;right=0;points=[[0,0.5],[1,0.5]];portConstraint=eastwest;strokeColor=#E07A5F;fontColor=#393C56;" parent="156" vertex="1">
                    <mxGeometry y="100" width="420" height="40" as="geometry"/>
                </mxCell>
                <mxCell id="196" value="FK" style="shape=partialRectangle;connectable=0;fillColor=none;top=0;left=0;bottom=0;right=0;editable=1;overflow=hidden;strokeColor=#E07A5F;fontColor=#393C56;" parent="195" vertex="1">
                    <mxGeometry width="60" height="40" as="geometry"/>
                </mxCell>
                <mxCell id="197" value="プロジェクトID" style="shape=partialRectangle;connectable=0;fillColor=none;top=0;left=0;bottom=0;right=0;align=left;spacingLeft=6;overflow=hidden;strokeColor=#E07A5F;fontColor=#393C56;" parent="195" vertex="1">
                    <mxGeometry x="60" width="120" height="40" as="geometry"/>
                </mxCell>
                <mxCell id="198" value="project_id" style="shape=partialRectangle;connectable=0;fillColor=none;top=0;left=0;bottom=0;right=0;align=left;spacingLeft=6;overflow=hidden;strokeColor=#E07A5F;fontColor=#393C56;" parent="195" vertex="1">
                    <mxGeometry x="180" width="120" height="40" as="geometry"/>
                </mxCell>
                <mxCell id="284" style="shape=partialRectangle;connectable=0;fillColor=none;top=0;left=0;bottom=0;right=0;align=left;spacingLeft=6;overflow=hidden;strokeColor=#E07A5F;fontColor=#393C56;" parent="195" vertex="1">
                    <mxGeometry x="300" width="120" height="40" as="geometry"/>
                </mxCell>
                <mxCell id="163" value="" style="shape=partialRectangle;collapsible=0;dropTarget=0;pointerEvents=0;fillColor=none;top=0;left=0;bottom=0;right=0;points=[[0,0.5],[1,0.5]];portConstraint=eastwest;strokeColor=#E07A5F;fontColor=#393C56;" parent="156" vertex="1">
                    <mxGeometry y="140" width="420" height="60" as="geometry"/>
                </mxCell>
                <mxCell id="164" value="" style="shape=partialRectangle;connectable=0;fillColor=none;top=0;left=0;bottom=0;right=0;editable=1;overflow=hidden;strokeColor=#E07A5F;fontColor=#393C56;" parent="163" vertex="1">
                    <mxGeometry width="60" height="60" as="geometry"/>
                </mxCell>
                <mxCell id="165" value="種類" style="shape=partialRectangle;connectable=0;fillColor=none;top=0;left=0;bottom=0;right=0;align=left;spacingLeft=6;overflow=hidden;strokeColor=#E07A5F;fontColor=#393C56;" parent="163" vertex="1">
                    <mxGeometry x="60" width="120" height="60" as="geometry"/>
                </mxCell>
                <mxCell id="185" value="category" style="shape=partialRectangle;connectable=0;fillColor=none;top=0;left=0;bottom=0;right=0;align=left;spacingLeft=6;overflow=hidden;strokeColor=#E07A5F;fontColor=#393C56;" parent="163" vertex="1">
                    <mxGeometry x="180" width="120" height="60" as="geometry"/>
                </mxCell>
                <mxCell id="285" value="integer(11)&#10;1:KEEP&#10;2:TRY&#10;3.DONE" style="shape=partialRectangle;connectable=0;fillColor=none;top=0;left=0;bottom=0;right=0;align=left;spacingLeft=6;overflow=hidden;strokeColor=#E07A5F;fontColor=#393C56;" parent="163" vertex="1">
                    <mxGeometry x="300" width="120" height="60" as="geometry"/>
                </mxCell>
                <mxCell id="166" value="" style="shape=partialRectangle;collapsible=0;dropTarget=0;pointerEvents=0;fillColor=none;top=0;left=0;bottom=0;right=0;points=[[0,0.5],[1,0.5]];portConstraint=eastwest;strokeColor=#E07A5F;fontColor=#393C56;" parent="156" vertex="1">
                    <mxGeometry y="200" width="420" height="30" as="geometry"/>
                </mxCell>
                <mxCell id="167" value="" style="shape=partialRectangle;connectable=0;fillColor=none;top=0;left=0;bottom=0;right=0;editable=1;overflow=hidden;strokeColor=#E07A5F;fontColor=#393C56;" parent="166" vertex="1">
                    <mxGeometry width="60" height="30" as="geometry"/>
                </mxCell>
                <mxCell id="168" value="内容" style="shape=partialRectangle;connectable=0;fillColor=none;top=0;left=0;bottom=0;right=0;align=left;spacingLeft=6;overflow=hidden;strokeColor=#E07A5F;fontColor=#393C56;" parent="166" vertex="1">
                    <mxGeometry x="60" width="120" height="30" as="geometry"/>
                </mxCell>
                <mxCell id="186" value="content" style="shape=partialRectangle;connectable=0;fillColor=none;top=0;left=0;bottom=0;right=0;align=left;spacingLeft=6;overflow=hidden;strokeColor=#E07A5F;fontColor=#393C56;" parent="166" vertex="1">
                    <mxGeometry x="180" width="120" height="30" as="geometry"/>
                </mxCell>
                <mxCell id="286" style="shape=partialRectangle;connectable=0;fillColor=none;top=0;left=0;bottom=0;right=0;align=left;spacingLeft=6;overflow=hidden;strokeColor=#E07A5F;fontColor=#393C56;" parent="166" vertex="1">
                    <mxGeometry x="300" width="120" height="30" as="geometry"/>
                </mxCell>
                <mxCell id="288" style="shape=partialRectangle;collapsible=0;dropTarget=0;pointerEvents=0;fillColor=none;top=0;left=0;bottom=0;right=0;points=[[0,0.5],[1,0.5]];portConstraint=eastwest;strokeColor=#E07A5F;fontColor=#393C56;" parent="156" vertex="1">
                    <mxGeometry y="230" width="420" height="30" as="geometry"/>
                </mxCell>
                <mxCell id="289" style="shape=partialRectangle;connectable=0;fillColor=none;top=0;left=0;bottom=0;right=0;editable=1;overflow=hidden;strokeColor=#E07A5F;fontColor=#393C56;" parent="288" vertex="1">
                    <mxGeometry width="60" height="30" as="geometry"/>
                </mxCell>
                <mxCell id="290" value="作成日時" style="shape=partialRectangle;connectable=0;fillColor=none;top=0;left=0;bottom=0;right=0;align=left;spacingLeft=6;overflow=hidden;strokeColor=#E07A5F;fontColor=#393C56;" parent="288" vertex="1">
                    <mxGeometry x="60" width="120" height="30" as="geometry"/>
                </mxCell>
                <mxCell id="291" value="created_at" style="shape=partialRectangle;connectable=0;fillColor=none;top=0;left=0;bottom=0;right=0;align=left;spacingLeft=6;overflow=hidden;strokeColor=#E07A5F;fontColor=#393C56;" parent="288" vertex="1">
                    <mxGeometry x="180" width="120" height="30" as="geometry"/>
                </mxCell>
                <mxCell id="292" style="shape=partialRectangle;connectable=0;fillColor=none;top=0;left=0;bottom=0;right=0;align=left;spacingLeft=6;overflow=hidden;strokeColor=#E07A5F;fontColor=#393C56;" parent="288" vertex="1">
                    <mxGeometry x="300" width="120" height="30" as="geometry"/>
                </mxCell>
                <mxCell id="293" style="shape=partialRectangle;collapsible=0;dropTarget=0;pointerEvents=0;fillColor=none;top=0;left=0;bottom=0;right=0;points=[[0,0.5],[1,0.5]];portConstraint=eastwest;strokeColor=#E07A5F;fontColor=#393C56;" parent="156" vertex="1">
                    <mxGeometry y="260" width="420" height="30" as="geometry"/>
                </mxCell>
                <mxCell id="294" value="FK" style="shape=partialRectangle;connectable=0;fillColor=none;top=0;left=0;bottom=0;right=0;editable=1;overflow=hidden;strokeColor=#E07A5F;fontColor=#393C56;" parent="293" vertex="1">
                    <mxGeometry width="60" height="30" as="geometry"/>
                </mxCell>
                <mxCell id="295" value="作成者" style="shape=partialRectangle;connectable=0;fillColor=none;top=0;left=0;bottom=0;right=0;align=left;spacingLeft=6;overflow=hidden;strokeColor=#E07A5F;fontColor=#393C56;" parent="293" vertex="1">
                    <mxGeometry x="60" width="120" height="30" as="geometry"/>
                </mxCell>
                <mxCell id="296" value="created_user_id" style="shape=partialRectangle;connectable=0;fillColor=none;top=0;left=0;bottom=0;right=0;align=left;spacingLeft=6;overflow=hidden;strokeColor=#E07A5F;fontColor=#393C56;" parent="293" vertex="1">
                    <mxGeometry x="180" width="120" height="30" as="geometry"/>
                </mxCell>
                <mxCell id="297" style="shape=partialRectangle;connectable=0;fillColor=none;top=0;left=0;bottom=0;right=0;align=left;spacingLeft=6;overflow=hidden;strokeColor=#E07A5F;fontColor=#393C56;" parent="293" vertex="1">
                    <mxGeometry x="300" width="120" height="30" as="geometry"/>
                </mxCell>
                <mxCell id="303" style="shape=partialRectangle;collapsible=0;dropTarget=0;pointerEvents=0;fillColor=none;top=0;left=0;bottom=0;right=0;points=[[0,0.5],[1,0.5]];portConstraint=eastwest;strokeColor=#E07A5F;fontColor=#393C56;" parent="156" vertex="1">
                    <mxGeometry y="290" width="420" height="30" as="geometry"/>
                </mxCell>
                <mxCell id="304" style="shape=partialRectangle;connectable=0;fillColor=none;top=0;left=0;bottom=0;right=0;editable=1;overflow=hidden;strokeColor=#E07A5F;fontColor=#393C56;" parent="303" vertex="1">
                    <mxGeometry width="60" height="30" as="geometry"/>
                </mxCell>
                <mxCell id="305" value="更新日時" style="shape=partialRectangle;connectable=0;fillColor=none;top=0;left=0;bottom=0;right=0;align=left;spacingLeft=6;overflow=hidden;strokeColor=#E07A5F;fontColor=#393C56;" parent="303" vertex="1">
                    <mxGeometry x="60" width="120" height="30" as="geometry"/>
                </mxCell>
                <mxCell id="306" value="modified_at" style="shape=partialRectangle;connectable=0;fillColor=none;top=0;left=0;bottom=0;right=0;align=left;spacingLeft=6;overflow=hidden;strokeColor=#E07A5F;fontColor=#393C56;" parent="303" vertex="1">
                    <mxGeometry x="180" width="120" height="30" as="geometry"/>
                </mxCell>
                <mxCell id="307" style="shape=partialRectangle;connectable=0;fillColor=none;top=0;left=0;bottom=0;right=0;align=left;spacingLeft=6;overflow=hidden;strokeColor=#E07A5F;fontColor=#393C56;" parent="303" vertex="1">
                    <mxGeometry x="300" width="120" height="30" as="geometry"/>
                </mxCell>
                <mxCell id="298" style="shape=partialRectangle;collapsible=0;dropTarget=0;pointerEvents=0;fillColor=none;top=0;left=0;bottom=0;right=0;points=[[0,0.5],[1,0.5]];portConstraint=eastwest;strokeColor=#E07A5F;fontColor=#393C56;" parent="156" vertex="1">
                    <mxGeometry y="320" width="420" height="30" as="geometry"/>
                </mxCell>
                <mxCell id="299" value="FK" style="shape=partialRectangle;connectable=0;fillColor=none;top=0;left=0;bottom=0;right=0;editable=1;overflow=hidden;strokeColor=#E07A5F;fontColor=#393C56;" parent="298" vertex="1">
                    <mxGeometry width="60" height="30" as="geometry"/>
                </mxCell>
                <mxCell id="300" value="更新者" style="shape=partialRectangle;connectable=0;fillColor=none;top=0;left=0;bottom=0;right=0;align=left;spacingLeft=6;overflow=hidden;strokeColor=#E07A5F;fontColor=#393C56;" parent="298" vertex="1">
                    <mxGeometry x="60" width="120" height="30" as="geometry"/>
                </mxCell>
                <mxCell id="301" value="modified_user_id" style="shape=partialRectangle;connectable=0;fillColor=none;top=0;left=0;bottom=0;right=0;align=left;spacingLeft=6;overflow=hidden;strokeColor=#E07A5F;fontColor=#393C56;" parent="298" vertex="1">
                    <mxGeometry x="180" width="120" height="30" as="geometry"/>
                </mxCell>
                <mxCell id="302" style="shape=partialRectangle;connectable=0;fillColor=none;top=0;left=0;bottom=0;right=0;align=left;spacingLeft=6;overflow=hidden;strokeColor=#E07A5F;fontColor=#393C56;" parent="298" vertex="1">
                    <mxGeometry x="300" width="120" height="30" as="geometry"/>
                </mxCell>
                <mxCell id="199" style="shape=partialRectangle;collapsible=0;dropTarget=0;pointerEvents=0;fillColor=none;top=0;left=0;bottom=0;right=0;points=[[0,0.5],[1,0.5]];portConstraint=eastwest;strokeColor=#E07A5F;fontColor=#393C56;" parent="156" vertex="1">
                    <mxGeometry y="350" width="420" height="30" as="geometry"/>
                </mxCell>
                <mxCell id="200" style="shape=partialRectangle;connectable=0;fillColor=none;top=0;left=0;bottom=0;right=0;editable=1;overflow=hidden;strokeColor=#E07A5F;fontColor=#393C56;" parent="199" vertex="1">
                    <mxGeometry width="60" height="30" as="geometry"/>
                </mxCell>
                <mxCell id="201" value="削除フラグ" style="shape=partialRectangle;connectable=0;fillColor=none;top=0;left=0;bottom=0;right=0;align=left;spacingLeft=6;overflow=hidden;strokeColor=#E07A5F;fontColor=#393C56;" parent="199" vertex="1">
                    <mxGeometry x="60" width="120" height="30" as="geometry"/>
                </mxCell>
                <mxCell id="202" value="is_deleted" style="shape=partialRectangle;connectable=0;fillColor=none;top=0;left=0;bottom=0;right=0;align=left;spacingLeft=6;overflow=hidden;strokeColor=#E07A5F;fontColor=#393C56;" parent="199" vertex="1">
                    <mxGeometry x="180" width="120" height="30" as="geometry"/>
                </mxCell>
                <mxCell id="287" value="tinyint&#10;0: 削除, 1:削除済み" style="shape=partialRectangle;connectable=0;fillColor=none;top=0;left=0;bottom=0;right=0;align=left;spacingLeft=6;overflow=hidden;strokeColor=#E07A5F;fontColor=#393C56;" parent="199" vertex="1">
                    <mxGeometry x="300" width="120" height="30" as="geometry"/>
                </mxCell>
                <mxCell id="170" value="problems&#10;PROBLEMを管理" style="shape=table;startSize=50;container=1;collapsible=1;childLayout=tableLayout;fixedRows=1;rowLines=0;fontStyle=1;align=center;resizeLast=1;fillColor=#F2CC8F;strokeColor=#E07A5F;fontColor=#393C56;" parent="1" vertex="1">
                    <mxGeometry x="-100" y="1210" width="420" height="380" as="geometry"/>
                </mxCell>
                <mxCell id="171" value="" style="shape=partialRectangle;collapsible=0;dropTarget=0;pointerEvents=0;fillColor=none;top=0;left=0;bottom=0;right=0;points=[[0,0.5],[1,0.5]];portConstraint=eastwest;strokeColor=#E07A5F;fontColor=#393C56;" parent="170" vertex="1">
                    <mxGeometry y="50" width="420" height="30" as="geometry"/>
                </mxCell>
                <mxCell id="172" value="PK" style="shape=partialRectangle;connectable=0;fillColor=none;top=0;left=0;bottom=0;right=0;fontStyle=1;overflow=hidden;strokeColor=#E07A5F;fontColor=#393C56;" parent="171" vertex="1">
                    <mxGeometry width="60" height="30" as="geometry"/>
                </mxCell>
                <mxCell id="173" value="ID" style="shape=partialRectangle;connectable=0;fillColor=none;top=0;left=0;bottom=0;right=0;align=left;spacingLeft=6;fontStyle=5;overflow=hidden;strokeColor=#E07A5F;fontColor=#393C56;" parent="171" vertex="1">
                    <mxGeometry x="60" width="120" height="30" as="geometry"/>
                </mxCell>
                <mxCell id="187" value="id" style="shape=partialRectangle;connectable=0;fillColor=none;top=0;left=0;bottom=0;right=0;align=left;spacingLeft=6;fontStyle=5;overflow=hidden;strokeColor=#E07A5F;fontColor=#393C56;" parent="171" vertex="1">
                    <mxGeometry x="180" width="120" height="30" as="geometry"/>
                </mxCell>
                <mxCell id="191" value="integer(11), AI" style="shape=partialRectangle;connectable=0;fillColor=none;top=0;left=0;bottom=0;right=0;align=left;spacingLeft=6;fontStyle=5;overflow=hidden;strokeColor=#E07A5F;fontColor=#393C56;" parent="171" vertex="1">
                    <mxGeometry x="300" width="120" height="30" as="geometry"/>
                </mxCell>
                <mxCell id="174" value="" style="shape=partialRectangle;collapsible=0;dropTarget=0;pointerEvents=0;fillColor=none;top=0;left=0;bottom=1;right=0;points=[[0,0.5],[1,0.5]];portConstraint=eastwest;strokeColor=#E07A5F;fontColor=#393C56;" parent="170" vertex="1">
                    <mxGeometry y="80" width="420" height="30" as="geometry"/>
                </mxCell>
                <mxCell id="175" value="PK,FK2" style="shape=partialRectangle;connectable=0;fillColor=none;top=0;left=0;bottom=0;right=0;fontStyle=1;overflow=hidden;strokeColor=#E07A5F;fontColor=#393C56;" parent="174" vertex="1">
                    <mxGeometry width="60" height="30" as="geometry"/>
                </mxCell>
                <mxCell id="176" value="Row 2" style="shape=partialRectangle;connectable=0;fillColor=none;top=0;left=0;bottom=0;right=0;align=left;spacingLeft=6;fontStyle=5;overflow=hidden;strokeColor=#E07A5F;fontColor=#393C56;" parent="174" vertex="1">
                    <mxGeometry x="60" width="120" height="30" as="geometry"/>
                </mxCell>
                <mxCell id="188" style="shape=partialRectangle;connectable=0;fillColor=none;top=0;left=0;bottom=0;right=0;align=left;spacingLeft=6;fontStyle=5;overflow=hidden;strokeColor=#E07A5F;fontColor=#393C56;" parent="174" vertex="1">
                    <mxGeometry x="180" width="120" height="30" as="geometry"/>
                </mxCell>
                <mxCell id="192" style="shape=partialRectangle;connectable=0;fillColor=none;top=0;left=0;bottom=0;right=0;align=left;spacingLeft=6;fontStyle=5;overflow=hidden;strokeColor=#E07A5F;fontColor=#393C56;" parent="174" vertex="1">
                    <mxGeometry x="300" width="120" height="30" as="geometry"/>
                </mxCell>
                <mxCell id="226" style="shape=partialRectangle;collapsible=0;dropTarget=0;pointerEvents=0;fillColor=none;top=0;left=0;bottom=0;right=0;points=[[0,0.5],[1,0.5]];portConstraint=eastwest;strokeColor=#E07A5F;fontColor=#393C56;" parent="170" vertex="1">
                    <mxGeometry y="110" width="420" height="30" as="geometry"/>
                </mxCell>
                <mxCell id="227" value="FK" style="shape=partialRectangle;connectable=0;fillColor=none;top=0;left=0;bottom=0;right=0;editable=1;overflow=hidden;strokeColor=#E07A5F;fontColor=#393C56;" parent="226" vertex="1">
                    <mxGeometry width="60" height="30" as="geometry"/>
                </mxCell>
                <mxCell id="228" value="プロジェクトID" style="shape=partialRectangle;connectable=0;fillColor=none;top=0;left=0;bottom=0;right=0;align=left;spacingLeft=6;overflow=hidden;strokeColor=#E07A5F;fontColor=#393C56;" parent="226" vertex="1">
                    <mxGeometry x="60" width="120" height="30" as="geometry"/>
                </mxCell>
                <mxCell id="229" value="project_id" style="shape=partialRectangle;connectable=0;fillColor=none;top=0;left=0;bottom=0;right=0;align=left;spacingLeft=6;overflow=hidden;strokeColor=#E07A5F;fontColor=#393C56;" parent="226" vertex="1">
                    <mxGeometry x="180" width="120" height="30" as="geometry"/>
                </mxCell>
                <mxCell id="230" value="integet(11)" style="shape=partialRectangle;connectable=0;fillColor=none;top=0;left=0;bottom=0;right=0;align=left;spacingLeft=6;overflow=hidden;strokeColor=#E07A5F;fontColor=#393C56;" parent="226" vertex="1">
                    <mxGeometry x="300" width="120" height="30" as="geometry"/>
                </mxCell>
                <mxCell id="177" value="" style="shape=partialRectangle;collapsible=0;dropTarget=0;pointerEvents=0;fillColor=none;top=0;left=0;bottom=0;right=0;points=[[0,0.5],[1,0.5]];portConstraint=eastwest;strokeColor=#E07A5F;fontColor=#393C56;" parent="170" vertex="1">
                    <mxGeometry y="140" width="420" height="30" as="geometry"/>
                </mxCell>
                <mxCell id="178" value="" style="shape=partialRectangle;connectable=0;fillColor=none;top=0;left=0;bottom=0;right=0;editable=1;overflow=hidden;strokeColor=#E07A5F;fontColor=#393C56;" parent="177" vertex="1">
                    <mxGeometry width="60" height="30" as="geometry"/>
                </mxCell>
                <mxCell id="179" value="内容" style="shape=partialRectangle;connectable=0;fillColor=none;top=0;left=0;bottom=0;right=0;align=left;spacingLeft=6;overflow=hidden;strokeColor=#E07A5F;fontColor=#393C56;" parent="177" vertex="1">
                    <mxGeometry x="60" width="120" height="30" as="geometry"/>
                </mxCell>
                <mxCell id="189" value="content" style="shape=partialRectangle;connectable=0;fillColor=none;top=0;left=0;bottom=0;right=0;align=left;spacingLeft=6;overflow=hidden;strokeColor=#E07A5F;fontColor=#393C56;" parent="177" vertex="1">
                    <mxGeometry x="180" width="120" height="30" as="geometry"/>
                </mxCell>
                <mxCell id="193" value="varchar(1000)" style="shape=partialRectangle;connectable=0;fillColor=none;top=0;left=0;bottom=0;right=0;align=left;spacingLeft=6;overflow=hidden;strokeColor=#E07A5F;fontColor=#393C56;" parent="177" vertex="1">
                    <mxGeometry x="300" width="120" height="30" as="geometry"/>
                </mxCell>
                <mxCell id="277" style="shape=partialRectangle;collapsible=0;dropTarget=0;pointerEvents=0;fillColor=none;top=0;left=0;bottom=0;right=0;points=[[0,0.5],[1,0.5]];portConstraint=eastwest;strokeColor=#E07A5F;fontColor=#393C56;" parent="170" vertex="1">
                    <mxGeometry y="170" width="420" height="30" as="geometry"/>
                </mxCell>
                <mxCell id="278" style="shape=partialRectangle;connectable=0;fillColor=none;top=0;left=0;bottom=0;right=0;editable=1;overflow=hidden;strokeColor=#E07A5F;fontColor=#393C56;" parent="277" vertex="1">
                    <mxGeometry width="60" height="30" as="geometry"/>
                </mxCell>
                <mxCell id="279" value="作成日時" style="shape=partialRectangle;connectable=0;fillColor=none;top=0;left=0;bottom=0;right=0;align=left;spacingLeft=6;overflow=hidden;strokeColor=#E07A5F;fontColor=#393C56;" parent="277" vertex="1">
                    <mxGeometry x="60" width="120" height="30" as="geometry"/>
                </mxCell>
                <mxCell id="280" value="created_at" style="shape=partialRectangle;connectable=0;fillColor=none;top=0;left=0;bottom=0;right=0;align=left;spacingLeft=6;overflow=hidden;strokeColor=#E07A5F;fontColor=#393C56;" parent="277" vertex="1">
                    <mxGeometry x="180" width="120" height="30" as="geometry"/>
                </mxCell>
                <mxCell id="281" style="shape=partialRectangle;connectable=0;fillColor=none;top=0;left=0;bottom=0;right=0;align=left;spacingLeft=6;overflow=hidden;strokeColor=#E07A5F;fontColor=#393C56;" parent="277" vertex="1">
                    <mxGeometry x="300" width="120" height="30" as="geometry"/>
                </mxCell>
                <mxCell id="234" style="shape=partialRectangle;collapsible=0;dropTarget=0;pointerEvents=0;fillColor=none;top=0;left=0;bottom=0;right=0;points=[[0,0.5],[1,0.5]];portConstraint=eastwest;strokeColor=#E07A5F;fontColor=#393C56;" parent="170" vertex="1">
                    <mxGeometry y="200" width="420" height="30" as="geometry"/>
                </mxCell>
                <mxCell id="235" value="FK" style="shape=partialRectangle;connectable=0;fillColor=none;top=0;left=0;bottom=0;right=0;editable=1;overflow=hidden;strokeColor=#E07A5F;fontColor=#393C56;" parent="234" vertex="1">
                    <mxGeometry width="60" height="30" as="geometry"/>
                </mxCell>
                <mxCell id="236" value="作成者" style="shape=partialRectangle;connectable=0;fillColor=none;top=0;left=0;bottom=0;right=0;align=left;spacingLeft=6;overflow=hidden;strokeColor=#E07A5F;fontColor=#393C56;" parent="234" vertex="1">
                    <mxGeometry x="60" width="120" height="30" as="geometry"/>
                </mxCell>
                <mxCell id="237" value="created_user_id" style="shape=partialRectangle;connectable=0;fillColor=none;top=0;left=0;bottom=0;right=0;align=left;spacingLeft=6;overflow=hidden;strokeColor=#E07A5F;fontColor=#393C56;" parent="234" vertex="1">
                    <mxGeometry x="180" width="120" height="30" as="geometry"/>
                </mxCell>
                <mxCell id="238" value="integer(11)" style="shape=partialRectangle;connectable=0;fillColor=none;top=0;left=0;bottom=0;right=0;align=left;spacingLeft=6;overflow=hidden;strokeColor=#E07A5F;fontColor=#393C56;" parent="234" vertex="1">
                    <mxGeometry x="300" width="120" height="30" as="geometry"/>
                </mxCell>
                <mxCell id="308" style="shape=partialRectangle;collapsible=0;dropTarget=0;pointerEvents=0;fillColor=none;top=0;left=0;bottom=0;right=0;points=[[0,0.5],[1,0.5]];portConstraint=eastwest;strokeColor=#E07A5F;fontColor=#393C56;" parent="170" vertex="1">
                    <mxGeometry y="230" width="420" height="30" as="geometry"/>
                </mxCell>
                <mxCell id="309" style="shape=partialRectangle;connectable=0;fillColor=none;top=0;left=0;bottom=0;right=0;editable=1;overflow=hidden;strokeColor=#E07A5F;fontColor=#393C56;" parent="308" vertex="1">
                    <mxGeometry width="60" height="30" as="geometry"/>
                </mxCell>
                <mxCell id="310" value="更新日時" style="shape=partialRectangle;connectable=0;fillColor=none;top=0;left=0;bottom=0;right=0;align=left;spacingLeft=6;overflow=hidden;strokeColor=#E07A5F;fontColor=#393C56;" parent="308" vertex="1">
                    <mxGeometry x="60" width="120" height="30" as="geometry"/>
                </mxCell>
                <mxCell id="311" value="modified_at" style="shape=partialRectangle;connectable=0;fillColor=none;top=0;left=0;bottom=0;right=0;align=left;spacingLeft=6;overflow=hidden;strokeColor=#E07A5F;fontColor=#393C56;" parent="308" vertex="1">
                    <mxGeometry x="180" width="120" height="30" as="geometry"/>
                </mxCell>
                <mxCell id="312" style="shape=partialRectangle;connectable=0;fillColor=none;top=0;left=0;bottom=0;right=0;align=left;spacingLeft=6;overflow=hidden;strokeColor=#E07A5F;fontColor=#393C56;" parent="308" vertex="1">
                    <mxGeometry x="300" width="120" height="30" as="geometry"/>
                </mxCell>
                <mxCell id="313" style="shape=partialRectangle;collapsible=0;dropTarget=0;pointerEvents=0;fillColor=none;top=0;left=0;bottom=0;right=0;points=[[0,0.5],[1,0.5]];portConstraint=eastwest;strokeColor=#E07A5F;fontColor=#393C56;" parent="170" vertex="1">
                    <mxGeometry y="260" width="420" height="30" as="geometry"/>
                </mxCell>
                <mxCell id="314" value="FK" style="shape=partialRectangle;connectable=0;fillColor=none;top=0;left=0;bottom=0;right=0;editable=1;overflow=hidden;strokeColor=#E07A5F;fontColor=#393C56;" parent="313" vertex="1">
                    <mxGeometry width="60" height="30" as="geometry"/>
                </mxCell>
                <mxCell id="315" value="更新者" style="shape=partialRectangle;connectable=0;fillColor=none;top=0;left=0;bottom=0;right=0;align=left;spacingLeft=6;overflow=hidden;strokeColor=#E07A5F;fontColor=#393C56;" parent="313" vertex="1">
                    <mxGeometry x="60" width="120" height="30" as="geometry"/>
                </mxCell>
                <mxCell id="316" value="modified_user_id" style="shape=partialRectangle;connectable=0;fillColor=none;top=0;left=0;bottom=0;right=0;align=left;spacingLeft=6;overflow=hidden;strokeColor=#E07A5F;fontColor=#393C56;" parent="313" vertex="1">
                    <mxGeometry x="180" width="120" height="30" as="geometry"/>
                </mxCell>
                <mxCell id="317" style="shape=partialRectangle;connectable=0;fillColor=none;top=0;left=0;bottom=0;right=0;align=left;spacingLeft=6;overflow=hidden;strokeColor=#E07A5F;fontColor=#393C56;" parent="313" vertex="1">
                    <mxGeometry x="300" width="120" height="30" as="geometry"/>
                </mxCell>
                <mxCell id="318" style="shape=partialRectangle;collapsible=0;dropTarget=0;pointerEvents=0;fillColor=none;top=0;left=0;bottom=0;right=0;points=[[0,0.5],[1,0.5]];portConstraint=eastwest;strokeColor=#E07A5F;fontColor=#393C56;" parent="170" vertex="1">
                    <mxGeometry y="290" width="420" height="30" as="geometry"/>
                </mxCell>
                <mxCell id="319" style="shape=partialRectangle;connectable=0;fillColor=none;top=0;left=0;bottom=0;right=0;editable=1;overflow=hidden;strokeColor=#E07A5F;fontColor=#393C56;" parent="318" vertex="1">
                    <mxGeometry width="60" height="30" as="geometry"/>
                </mxCell>
                <mxCell id="320" value="解決フラグ" style="shape=partialRectangle;connectable=0;fillColor=none;top=0;left=0;bottom=0;right=0;align=left;spacingLeft=6;overflow=hidden;strokeColor=#E07A5F;fontColor=#393C56;" parent="318" vertex="1">
                    <mxGeometry x="60" width="120" height="30" as="geometry"/>
                </mxCell>
                <mxCell id="321" value="is_resolved" style="shape=partialRectangle;connectable=0;fillColor=none;top=0;left=0;bottom=0;right=0;align=left;spacingLeft=6;overflow=hidden;strokeColor=#E07A5F;fontColor=#393C56;" parent="318" vertex="1">
                    <mxGeometry x="180" width="120" height="30" as="geometry"/>
                </mxCell>
                <mxCell id="322" value="tinyint&#10;0:problem, 1:relosve" style="shape=partialRectangle;connectable=0;fillColor=none;top=0;left=0;bottom=0;right=0;align=left;spacingLeft=6;overflow=hidden;strokeColor=#E07A5F;fontColor=#393C56;" parent="318" vertex="1">
                    <mxGeometry x="300" width="120" height="30" as="geometry"/>
                </mxCell>
                <mxCell id="239" style="shape=partialRectangle;collapsible=0;dropTarget=0;pointerEvents=0;fillColor=none;top=0;left=0;bottom=0;right=0;points=[[0,0.5],[1,0.5]];portConstraint=eastwest;strokeColor=#E07A5F;fontColor=#393C56;" parent="170" vertex="1">
                    <mxGeometry y="320" width="420" height="30" as="geometry"/>
                </mxCell>
                <mxCell id="240" style="shape=partialRectangle;connectable=0;fillColor=none;top=0;left=0;bottom=0;right=0;editable=1;overflow=hidden;strokeColor=#E07A5F;fontColor=#393C56;" parent="239" vertex="1">
                    <mxGeometry width="60" height="30" as="geometry"/>
                </mxCell>
                <mxCell id="241" value="削除フラグ" style="shape=partialRectangle;connectable=0;fillColor=none;top=0;left=0;bottom=0;right=0;align=left;spacingLeft=6;overflow=hidden;strokeColor=#E07A5F;fontColor=#393C56;" parent="239" vertex="1">
                    <mxGeometry x="60" width="120" height="30" as="geometry"/>
                </mxCell>
                <mxCell id="242" value="is_deleted" style="shape=partialRectangle;connectable=0;fillColor=none;top=0;left=0;bottom=0;right=0;align=left;spacingLeft=6;overflow=hidden;strokeColor=#E07A5F;fontColor=#393C56;" parent="239" vertex="1">
                    <mxGeometry x="180" width="120" height="30" as="geometry"/>
                </mxCell>
                <mxCell id="243" value="tinyint&#10;0: 削除, 1:削除済み" style="shape=partialRectangle;connectable=0;fillColor=none;top=0;left=0;bottom=0;right=0;align=left;spacingLeft=6;overflow=hidden;strokeColor=#E07A5F;fontColor=#393C56;" parent="239" vertex="1">
                    <mxGeometry x="300" width="120" height="30" as="geometry"/>
                </mxCell>
                <mxCell id="249" style="shape=partialRectangle;collapsible=0;dropTarget=0;pointerEvents=0;fillColor=none;top=0;left=0;bottom=0;right=0;points=[[0,0.5],[1,0.5]];portConstraint=eastwest;strokeColor=#E07A5F;fontColor=#393C56;" parent="170" vertex="1">
                    <mxGeometry y="350" width="420" height="30" as="geometry"/>
                </mxCell>
                <mxCell id="250" style="shape=partialRectangle;connectable=0;fillColor=none;top=0;left=0;bottom=0;right=0;editable=1;overflow=hidden;strokeColor=#E07A5F;fontColor=#393C56;" parent="249" vertex="1">
                    <mxGeometry width="60" height="30" as="geometry"/>
                </mxCell>
                <mxCell id="251" style="shape=partialRectangle;connectable=0;fillColor=none;top=0;left=0;bottom=0;right=0;align=left;spacingLeft=6;overflow=hidden;strokeColor=#E07A5F;fontColor=#393C56;" parent="249" vertex="1">
                    <mxGeometry x="60" width="120" height="30" as="geometry"/>
                </mxCell>
                <mxCell id="252" style="shape=partialRectangle;connectable=0;fillColor=none;top=0;left=0;bottom=0;right=0;align=left;spacingLeft=6;overflow=hidden;strokeColor=#E07A5F;fontColor=#393C56;" parent="249" vertex="1">
                    <mxGeometry x="180" width="120" height="30" as="geometry"/>
                </mxCell>
                <mxCell id="253" style="shape=partialRectangle;connectable=0;fillColor=none;top=0;left=0;bottom=0;right=0;align=left;spacingLeft=6;overflow=hidden;strokeColor=#E07A5F;fontColor=#393C56;" parent="249" vertex="1">
                    <mxGeometry x="300" width="120" height="30" as="geometry"/>
                </mxCell>
                <mxCell id="203" value="Projects&#10;KPT全体の管理" style="shape=table;startSize=50;container=1;collapsible=1;childLayout=tableLayout;fixedRows=1;rowLines=0;fontStyle=1;align=center;resizeLast=1;fillColor=#F2CC8F;strokeColor=#E07A5F;fontColor=#393C56;" parent="1" vertex="1">
                    <mxGeometry x="80" y="800" width="420" height="350" as="geometry"/>
                </mxCell>
                <mxCell id="209" value="" style="shape=partialRectangle;collapsible=0;dropTarget=0;pointerEvents=0;fillColor=none;top=0;left=0;bottom=1;right=0;points=[[0,0.5],[1,0.5]];portConstraint=eastwest;strokeColor=#E07A5F;fontColor=#393C56;" parent="203" vertex="1">
                    <mxGeometry y="50" width="420" height="30" as="geometry"/>
                </mxCell>
                <mxCell id="210" value="PK,FK2" style="shape=partialRectangle;connectable=0;fillColor=none;top=0;left=0;bottom=0;right=0;fontStyle=1;overflow=hidden;strokeColor=#E07A5F;fontColor=#393C56;" parent="209" vertex="1">
                    <mxGeometry width="60" height="30" as="geometry"/>
                </mxCell>
                <mxCell id="211" value="ID" style="shape=partialRectangle;connectable=0;fillColor=none;top=0;left=0;bottom=0;right=0;align=left;spacingLeft=6;fontStyle=5;overflow=hidden;strokeColor=#E07A5F;fontColor=#393C56;" parent="209" vertex="1">
                    <mxGeometry x="60" width="120" height="30" as="geometry"/>
                </mxCell>
                <mxCell id="212" value="id" style="shape=partialRectangle;connectable=0;fillColor=none;top=0;left=0;bottom=0;right=0;align=left;spacingLeft=6;fontStyle=5;overflow=hidden;strokeColor=#E07A5F;fontColor=#393C56;" parent="209" vertex="1">
                    <mxGeometry x="180" width="120" height="30" as="geometry"/>
                </mxCell>
                <mxCell id="213" value="AI" style="shape=partialRectangle;connectable=0;fillColor=none;top=0;left=0;bottom=0;right=0;align=left;spacingLeft=6;fontStyle=5;overflow=hidden;strokeColor=#E07A5F;fontColor=#393C56;" parent="209" vertex="1">
                    <mxGeometry x="300" width="120" height="30" as="geometry"/>
                </mxCell>
                <mxCell id="214" value="" style="shape=partialRectangle;collapsible=0;dropTarget=0;pointerEvents=0;fillColor=none;top=0;left=0;bottom=0;right=0;points=[[0,0.5],[1,0.5]];portConstraint=eastwest;strokeColor=#E07A5F;fontColor=#393C56;" parent="203" vertex="1">
                    <mxGeometry y="80" width="420" height="30" as="geometry"/>
                </mxCell>
                <mxCell id="215" value="" style="shape=partialRectangle;connectable=0;fillColor=none;top=0;left=0;bottom=0;right=0;editable=1;overflow=hidden;strokeColor=#E07A5F;fontColor=#393C56;" parent="214" vertex="1">
                    <mxGeometry width="60" height="30" as="geometry"/>
                </mxCell>
                <mxCell id="216" value="説明" style="shape=partialRectangle;connectable=0;fillColor=none;top=0;left=0;bottom=0;right=0;align=left;spacingLeft=6;overflow=hidden;strokeColor=#E07A5F;fontColor=#393C56;" parent="214" vertex="1">
                    <mxGeometry x="60" width="120" height="30" as="geometry"/>
                </mxCell>
                <mxCell id="217" value="description" style="shape=partialRectangle;connectable=0;fillColor=none;top=0;left=0;bottom=0;right=0;align=left;spacingLeft=6;overflow=hidden;strokeColor=#E07A5F;fontColor=#393C56;" parent="214" vertex="1">
                    <mxGeometry x="180" width="120" height="30" as="geometry"/>
                </mxCell>
                <mxCell id="218" value="varchar(1000)" style="shape=partialRectangle;connectable=0;fillColor=none;top=0;left=0;bottom=0;right=0;align=left;spacingLeft=6;overflow=hidden;strokeColor=#E07A5F;fontColor=#393C56;" parent="214" vertex="1">
                    <mxGeometry x="300" width="120" height="30" as="geometry"/>
                </mxCell>
                <mxCell id="331" style="shape=partialRectangle;collapsible=0;dropTarget=0;pointerEvents=0;fillColor=none;top=0;left=0;bottom=0;right=0;points=[[0,0.5],[1,0.5]];portConstraint=eastwest;strokeColor=#E07A5F;fontColor=#393C56;" parent="203" vertex="1">
                    <mxGeometry y="110" width="420" height="30" as="geometry"/>
                </mxCell>
                <mxCell id="332" value="FK" style="shape=partialRectangle;connectable=0;fillColor=none;top=0;left=0;bottom=0;right=0;editable=1;overflow=hidden;strokeColor=#E07A5F;fontColor=#393C56;" parent="331" vertex="1">
                    <mxGeometry width="60" height="30" as="geometry"/>
                </mxCell>
                <mxCell id="333" value="所有ユーザーid" style="shape=partialRectangle;connectable=0;fillColor=none;top=0;left=0;bottom=0;right=0;align=left;spacingLeft=6;overflow=hidden;strokeColor=#E07A5F;fontColor=#393C56;" parent="331" vertex="1">
                    <mxGeometry x="60" width="120" height="30" as="geometry"/>
                </mxCell>
                <mxCell id="334" value="user_id" style="shape=partialRectangle;connectable=0;fillColor=none;top=0;left=0;bottom=0;right=0;align=left;spacingLeft=6;overflow=hidden;strokeColor=#E07A5F;fontColor=#393C56;" parent="331" vertex="1">
                    <mxGeometry x="180" width="120" height="30" as="geometry"/>
                </mxCell>
                <mxCell id="335" style="shape=partialRectangle;connectable=0;fillColor=none;top=0;left=0;bottom=0;right=0;align=left;spacingLeft=6;overflow=hidden;strokeColor=#E07A5F;fontColor=#393C56;" parent="331" vertex="1">
                    <mxGeometry x="300" width="120" height="30" as="geometry"/>
                </mxCell>
                <mxCell id="336" style="shape=partialRectangle;collapsible=0;dropTarget=0;pointerEvents=0;fillColor=#b1ddf0;top=0;left=0;bottom=0;right=0;points=[[0,0.5],[1,0.5]];portConstraint=eastwest;strokeColor=#10739e;" parent="203" vertex="1">
                    <mxGeometry y="140" width="420" height="30" as="geometry"/>
                </mxCell>
                <mxCell id="337" value="FK" style="shape=partialRectangle;connectable=0;fillColor=none;top=0;left=0;bottom=0;right=0;editable=1;overflow=hidden;strokeColor=#E07A5F;fontColor=#393C56;" parent="336" vertex="1">
                    <mxGeometry width="60" height="30" as="geometry"/>
                </mxCell>
                <mxCell id="338" value="所有チームid" style="shape=partialRectangle;connectable=0;fillColor=none;top=0;left=0;bottom=0;right=0;align=left;spacingLeft=6;overflow=hidden;strokeColor=#E07A5F;fontColor=#393C56;" parent="336" vertex="1">
                    <mxGeometry x="60" width="120" height="30" as="geometry"/>
                </mxCell>
                <mxCell id="339" value="team_id" style="shape=partialRectangle;connectable=0;fillColor=none;top=0;left=0;bottom=0;right=0;align=left;spacingLeft=6;overflow=hidden;strokeColor=#E07A5F;fontColor=#393C56;" parent="336" vertex="1">
                    <mxGeometry x="180" width="120" height="30" as="geometry"/>
                </mxCell>
                <mxCell id="340" style="shape=partialRectangle;connectable=0;fillColor=none;top=0;left=0;bottom=0;right=0;align=left;spacingLeft=6;overflow=hidden;strokeColor=#E07A5F;fontColor=#393C56;" parent="336" vertex="1">
                    <mxGeometry x="300" width="120" height="30" as="geometry"/>
                </mxCell>
                <mxCell id="341" style="shape=partialRectangle;collapsible=0;dropTarget=0;pointerEvents=0;fillColor=#b1ddf0;top=0;left=0;bottom=0;right=0;points=[[0,0.5],[1,0.5]];portConstraint=eastwest;strokeColor=#10739e;" parent="203" vertex="1">
                    <mxGeometry y="170" width="420" height="30" as="geometry"/>
                </mxCell>
                <mxCell id="342" style="shape=partialRectangle;connectable=0;fillColor=none;top=0;left=0;bottom=0;right=0;editable=1;overflow=hidden;strokeColor=#E07A5F;fontColor=#393C56;" parent="341" vertex="1">
                    <mxGeometry width="60" height="30" as="geometry"/>
                </mxCell>
                <mxCell id="343" value="チーム管理フラグ" style="shape=partialRectangle;connectable=0;fillColor=none;top=0;left=0;bottom=0;right=0;align=left;spacingLeft=6;overflow=hidden;strokeColor=#E07A5F;fontColor=#393C56;" parent="341" vertex="1">
                    <mxGeometry x="60" width="120" height="30" as="geometry"/>
                </mxCell>
                <mxCell id="344" style="shape=partialRectangle;connectable=0;fillColor=none;top=0;left=0;bottom=0;right=0;align=left;spacingLeft=6;overflow=hidden;strokeColor=#E07A5F;fontColor=#393C56;" parent="341" vertex="1">
                    <mxGeometry x="180" width="120" height="30" as="geometry"/>
                </mxCell>
                <mxCell id="345" style="shape=partialRectangle;connectable=0;fillColor=none;top=0;left=0;bottom=0;right=0;align=left;spacingLeft=6;overflow=hidden;strokeColor=#E07A5F;fontColor=#393C56;" parent="341" vertex="1">
                    <mxGeometry x="300" width="120" height="30" as="geometry"/>
                </mxCell>
                <mxCell id="219" value="" style="shape=partialRectangle;collapsible=0;dropTarget=0;pointerEvents=0;fillColor=none;top=0;left=0;bottom=0;right=0;points=[[0,0.5],[1,0.5]];portConstraint=eastwest;strokeColor=#E07A5F;fontColor=#393C56;" parent="203" vertex="1">
                    <mxGeometry y="200" width="420" height="30" as="geometry"/>
                </mxCell>
                <mxCell id="220" value="" style="shape=partialRectangle;connectable=0;fillColor=none;top=0;left=0;bottom=0;right=0;editable=1;overflow=hidden;strokeColor=#E07A5F;fontColor=#393C56;" parent="219" vertex="1">
                    <mxGeometry width="60" height="30" as="geometry"/>
                </mxCell>
                <mxCell id="221" value="作成日時" style="shape=partialRectangle;connectable=0;fillColor=none;top=0;left=0;bottom=0;right=0;align=left;spacingLeft=6;overflow=hidden;strokeColor=#E07A5F;fontColor=#393C56;" parent="219" vertex="1">
                    <mxGeometry x="60" width="120" height="30" as="geometry"/>
                </mxCell>
                <mxCell id="222" value="created_at" style="shape=partialRectangle;connectable=0;fillColor=none;top=0;left=0;bottom=0;right=0;align=left;spacingLeft=6;overflow=hidden;strokeColor=#E07A5F;fontColor=#393C56;" parent="219" vertex="1">
                    <mxGeometry x="180" width="120" height="30" as="geometry"/>
                </mxCell>
                <mxCell id="223" value="" style="shape=partialRectangle;connectable=0;fillColor=none;top=0;left=0;bottom=0;right=0;align=left;spacingLeft=6;overflow=hidden;strokeColor=#E07A5F;fontColor=#393C56;" parent="219" vertex="1">
                    <mxGeometry x="300" width="120" height="30" as="geometry"/>
                </mxCell>
                <mxCell id="255" style="shape=partialRectangle;collapsible=0;dropTarget=0;pointerEvents=0;fillColor=none;top=0;left=0;bottom=0;right=0;points=[[0,0.5],[1,0.5]];portConstraint=eastwest;strokeColor=#E07A5F;fontColor=#393C56;" parent="203" vertex="1">
                    <mxGeometry y="230" width="420" height="30" as="geometry"/>
                </mxCell>
                <mxCell id="256" value="FK" style="shape=partialRectangle;connectable=0;fillColor=none;top=0;left=0;bottom=0;right=0;editable=1;overflow=hidden;strokeColor=#E07A5F;fontColor=#393C56;" parent="255" vertex="1">
                    <mxGeometry width="60" height="30" as="geometry"/>
                </mxCell>
                <mxCell id="257" value="作成者" style="shape=partialRectangle;connectable=0;fillColor=none;top=0;left=0;bottom=0;right=0;align=left;spacingLeft=6;overflow=hidden;strokeColor=#E07A5F;fontColor=#393C56;" parent="255" vertex="1">
                    <mxGeometry x="60" width="120" height="30" as="geometry"/>
                </mxCell>
                <mxCell id="258" value="created_user_id" style="shape=partialRectangle;connectable=0;fillColor=none;top=0;left=0;bottom=0;right=0;align=left;spacingLeft=6;overflow=hidden;strokeColor=#E07A5F;fontColor=#393C56;" parent="255" vertex="1">
                    <mxGeometry x="180" width="120" height="30" as="geometry"/>
                </mxCell>
                <mxCell id="259" style="shape=partialRectangle;connectable=0;fillColor=none;top=0;left=0;bottom=0;right=0;align=left;spacingLeft=6;overflow=hidden;strokeColor=#E07A5F;fontColor=#393C56;" parent="255" vertex="1">
                    <mxGeometry x="300" width="120" height="30" as="geometry"/>
                </mxCell>
                <mxCell id="260" style="shape=partialRectangle;collapsible=0;dropTarget=0;pointerEvents=0;fillColor=none;top=0;left=0;bottom=0;right=0;points=[[0,0.5],[1,0.5]];portConstraint=eastwest;strokeColor=#E07A5F;fontColor=#393C56;" parent="203" vertex="1">
                    <mxGeometry y="260" width="420" height="30" as="geometry"/>
                </mxCell>
                <mxCell id="261" style="shape=partialRectangle;connectable=0;fillColor=none;top=0;left=0;bottom=0;right=0;editable=1;overflow=hidden;strokeColor=#E07A5F;fontColor=#393C56;" parent="260" vertex="1">
                    <mxGeometry width="60" height="30" as="geometry"/>
                </mxCell>
                <mxCell id="262" value="更新日時" style="shape=partialRectangle;connectable=0;fillColor=none;top=0;left=0;bottom=0;right=0;align=left;spacingLeft=6;overflow=hidden;strokeColor=#E07A5F;fontColor=#393C56;" parent="260" vertex="1">
                    <mxGeometry x="60" width="120" height="30" as="geometry"/>
                </mxCell>
                <mxCell id="263" value="modified_at" style="shape=partialRectangle;connectable=0;fillColor=none;top=0;left=0;bottom=0;right=0;align=left;spacingLeft=6;overflow=hidden;strokeColor=#E07A5F;fontColor=#393C56;" parent="260" vertex="1">
                    <mxGeometry x="180" width="120" height="30" as="geometry"/>
                </mxCell>
                <mxCell id="264" style="shape=partialRectangle;connectable=0;fillColor=none;top=0;left=0;bottom=0;right=0;align=left;spacingLeft=6;overflow=hidden;strokeColor=#E07A5F;fontColor=#393C56;" parent="260" vertex="1">
                    <mxGeometry x="300" width="120" height="30" as="geometry"/>
                </mxCell>
                <mxCell id="265" style="shape=partialRectangle;collapsible=0;dropTarget=0;pointerEvents=0;fillColor=none;top=0;left=0;bottom=0;right=0;points=[[0,0.5],[1,0.5]];portConstraint=eastwest;strokeColor=#E07A5F;fontColor=#393C56;" parent="203" vertex="1">
                    <mxGeometry y="290" width="420" height="30" as="geometry"/>
                </mxCell>
                <mxCell id="266" value="FK" style="shape=partialRectangle;connectable=0;fillColor=none;top=0;left=0;bottom=0;right=0;editable=1;overflow=hidden;strokeColor=#E07A5F;fontColor=#393C56;" parent="265" vertex="1">
                    <mxGeometry width="60" height="30" as="geometry"/>
                </mxCell>
                <mxCell id="267" value="更新者" style="shape=partialRectangle;connectable=0;fillColor=none;top=0;left=0;bottom=0;right=0;align=left;spacingLeft=6;overflow=hidden;strokeColor=#E07A5F;fontColor=#393C56;" parent="265" vertex="1">
                    <mxGeometry x="60" width="120" height="30" as="geometry"/>
                </mxCell>
                <mxCell id="268" value="modified_user_id" style="shape=partialRectangle;connectable=0;fillColor=none;top=0;left=0;bottom=0;right=0;align=left;spacingLeft=6;overflow=hidden;strokeColor=#E07A5F;fontColor=#393C56;" parent="265" vertex="1">
                    <mxGeometry x="180" width="120" height="30" as="geometry"/>
                </mxCell>
                <mxCell id="269" style="shape=partialRectangle;connectable=0;fillColor=none;top=0;left=0;bottom=0;right=0;align=left;spacingLeft=6;overflow=hidden;strokeColor=#E07A5F;fontColor=#393C56;" parent="265" vertex="1">
                    <mxGeometry x="300" width="120" height="30" as="geometry"/>
                </mxCell>
                <mxCell id="270" style="shape=partialRectangle;collapsible=0;dropTarget=0;pointerEvents=0;fillColor=none;top=0;left=0;bottom=0;right=0;points=[[0,0.5],[1,0.5]];portConstraint=eastwest;strokeColor=#E07A5F;fontColor=#393C56;" parent="203" vertex="1">
                    <mxGeometry y="320" width="420" height="30" as="geometry"/>
                </mxCell>
                <mxCell id="271" style="shape=partialRectangle;connectable=0;fillColor=none;top=0;left=0;bottom=0;right=0;editable=1;overflow=hidden;strokeColor=#E07A5F;fontColor=#393C56;" parent="270" vertex="1">
                    <mxGeometry width="60" height="30" as="geometry"/>
                </mxCell>
                <mxCell id="272" value="削除フラグ" style="shape=partialRectangle;connectable=0;fillColor=none;top=0;left=0;bottom=0;right=0;align=left;spacingLeft=6;overflow=hidden;strokeColor=#E07A5F;fontColor=#393C56;" parent="270" vertex="1">
                    <mxGeometry x="60" width="120" height="30" as="geometry"/>
                </mxCell>
                <mxCell id="273" value="ie_deleted" style="shape=partialRectangle;connectable=0;fillColor=none;top=0;left=0;bottom=0;right=0;align=left;spacingLeft=6;overflow=hidden;strokeColor=#E07A5F;fontColor=#393C56;" parent="270" vertex="1">
                    <mxGeometry x="180" width="120" height="30" as="geometry"/>
                </mxCell>
                <mxCell id="274" value="tinyint&#10;0: 削除, 1:削除済み" style="shape=partialRectangle;connectable=0;fillColor=none;top=0;left=0;bottom=0;right=0;align=left;spacingLeft=6;overflow=hidden;strokeColor=#E07A5F;fontColor=#393C56;" parent="270" vertex="1">
                    <mxGeometry x="300" width="120" height="30" as="geometry"/>
                </mxCell>
                <mxCell id="275" style="edgeStyle=orthogonalEdgeStyle;curved=0;rounded=1;sketch=0;orthogonalLoop=1;jettySize=auto;html=1;exitX=0;exitY=0.5;exitDx=0;exitDy=0;entryX=0.25;entryY=0;entryDx=0;entryDy=0;startArrow=ERzeroToOne;startFill=1;endArrow=ERmany;endFill=0;strokeColor=#E07A5F;fillColor=#F2CC8F;fontColor=#393C56;" parent="1" source="270" target="170" edge="1">
                    <mxGeometry relative="1" as="geometry"/>
                </mxCell>
                <mxCell id="276" style="edgeStyle=orthogonalEdgeStyle;curved=0;rounded=1;sketch=0;orthogonalLoop=1;jettySize=auto;html=1;exitX=1;exitY=0.5;exitDx=0;exitDy=0;startArrow=ERzeroToOne;startFill=1;endArrow=ERmany;endFill=0;strokeColor=#E07A5F;fillColor=#F2CC8F;fontColor=#393C56;" parent="1" source="270" target="156" edge="1">
                    <mxGeometry relative="1" as="geometry"/>
                </mxCell>
            </root>
        </mxGraphModel>
    </diagram>
</mxfile>